<svg xmlns="http://www.w3.org/2000/svg" version="1.1" xmlns:xlink="http://www.w3.org/1999/xlink" xmlns:svgjs="http://svgjs.dev/svgjs" width="1500" height="1500" viewBox="0 0 1500 1500"><rect width="1500" height="1500" fill="#000000"></rect><g transform="matrix(0.6666666666666666,0,0,0.6666666666666666,250.22884148917137,630.0891566205457)"><svg viewBox="0 0 293 70" data-background-color="#ffffff" preserveAspectRatio="xMidYMid meet" height="358" width="1500" xmlns="http://www.w3.org/2000/svg" xmlns:xlink="http://www.w3.org/1999/xlink"><g id="tight-bounds" transform="matrix(1,0,0,1,-0.06705055632721724,0.1693814381080756)"><svg viewBox="0 0 293.13410111265443 69.66123712378383" height="69.66123712378383" width="293.13410111265443"><g><svg viewBox="0 0 293.13410111265443 69.66123712378383" height="69.66123712378383" width="293.13410111265443"><g><svg viewBox="0 0 293.13410111265443 69.66123712378383" height="69.66123712378383" width="293.13410111265443"><g id="textblocktransform"><svg viewBox="0 0 293.13410111265443 69.66123712378383" height="69.66123712378383" width="293.13410111265443" id="textblock"><g><svg viewBox="0 0 293.13410111265443 34" height="34" width="293.13410111265443"><g><svg><g></g><g></g></svg></g><g><svg><g></g><g><svg></svg></g></svg></g><g id="text-0"><svg viewBox="0 0 293.13410111265443 34" height="34" width="293.13410111265443"><g><svg xmlns="http://www.w3.org/2000/svg" xmlns:xlink="http://www.w3.org/1999/xlink" version="1.1" x="0" y="0" viewBox="27.90099803649221 20 44.1990019635078 60" enable-background="new 0 0 100 100" xml:space="preserve" height="34" width="25.04610111265442" class="icon-cg-0" data-fill-palette-color="accent" id="cg-0"><g fill="#5ebc67" data-fill-palette-color="accent"><path d="M71.025 21.073C70.333 20.38 69.414 20 68.435 20H31.564c-0.978 0-1.897 0.381-2.59 1.073-0.692 0.691-1.073 1.612-1.073 2.59v52.674c-0.001 0.978 0.38 1.898 1.073 2.59C29.666 79.62 30.585 80 31.564 80h36.872c0.978 0 1.897-0.382 2.589-1.074 0.692-0.69 1.075-1.611 1.075-2.589V23.663C72.1 22.686 71.717 21.765 71.025 21.073zM35.228 72.673l0.001-45.346H64.77l0.002 45.346H35.228z" fill="#ffffff" data-fill-palette-color="accent"></path></g></svg></g><g transform="matrix(1,0,0,1,38.03410111265442,0)"><svg width="255.1" viewBox="2.2 -33.5 255.09000000000003 34" height="34" data-palette-color="#b10dc9"><path d="M30.85 0L2.2 0 2.2-0.8 6.45-2.85 6.45-30.15 2.2-32.2 2.2-33 29.45-33 29.45-24.35 28.65-24.35 24.95-30.25 14-30.25 14-18.4 21.7-18.4 24.5-22.7 25.3-22.7 25.3-11.45 24.5-11.45 21.7-15.65 14-15.65 14-2.75 26.15-2.75 30.05-10.2 30.85-10.2 30.85 0ZM52.95 0L36.25 0 36.25-0.8 40.5-2.85 40.5-30.15 36.25-32.2 36.25-33 53.3-33Q59.25-33 63.4-31.05 67.55-29.1 69.72-25.7 71.9-22.3 71.9-18L71.9-18Q71.9-14.1 70.47-10.8 69.05-7.5 66.5-5.1 63.95-2.7 60.5-1.35 57.05 0 52.95 0L52.95 0ZM51.25-30.25L51.25-30.25 48.05-30.25 48.05-2.75 51.95-2.75Q57.75-2.75 60.9-6.48 64.05-10.2 64.05-16.45L64.05-16.45Q64.05-22.75 60.82-26.5 57.6-30.25 51.25-30.25ZM93.85 0.5L93.85 0.5Q90.15 0.5 87-0.78 83.85-2.05 81.52-4.33 79.2-6.6 77.9-9.7 76.6-12.8 76.6-16.5L76.6-16.5Q76.6-20.2 77.9-23.3 79.2-26.4 81.52-28.68 83.85-30.95 87-32.23 90.15-33.5 93.85-33.5L93.85-33.5Q97.6-33.5 100.75-32.23 103.9-30.95 106.22-28.68 108.55-26.4 109.85-23.3 111.15-20.2 111.15-16.5L111.15-16.5Q111.15-12.8 109.85-9.7 108.55-6.6 106.22-4.33 103.9-2.05 100.75-0.78 97.6 0.5 93.85 0.5ZM94.65-2.1L94.65-2.1Q97.15-2.1 99.07-3.7 101-5.3 102.07-8.2 103.15-11.1 103.15-15L103.15-15Q103.15-19.8 101.82-23.4 100.5-27 98.25-28.98 96-30.95 93.2-30.95L93.2-30.95Q90.7-30.95 88.75-29.38 86.8-27.8 85.67-24.9 84.55-22 84.55-18.1L84.55-18.1Q84.55-13.3 85.9-9.7 87.25-6.1 89.55-4.1 91.85-2.1 94.65-2.1ZM133.54 0.5L133.54 0.5Q128.29 0.5 124.34-1.65 120.39-3.8 118.22-7.48 116.04-11.15 116.04-15.8L116.04-15.8Q116.04-19.55 117.54-22.75 119.04-25.95 121.62-28.38 124.19-30.8 127.47-32.15 130.74-33.5 134.34-33.5L134.34-33.5Q136.99-33.5 138.74-33.2 140.49-32.9 141.89-32.35 143.29-31.8 144.69-31.1L144.69-31.1 145.24-21.75 144.34-21.75 139.59-29.5Q138.34-30.3 137.24-30.65 136.14-31 134.59-31L134.59-31Q131.54-31 129.12-29.18 126.69-27.35 125.29-24.03 123.89-20.7 123.89-16.3L123.89-16.3Q123.89-11.95 125.24-8.78 126.59-5.6 128.92-3.88 131.24-2.15 134.14-2.15L134.14-2.15Q135.99-2.15 137.47-2.63 138.94-3.1 140.29-3.85L140.29-3.85 144.79-10.55 145.64-10.55 144.94-2.1Q142.89-0.9 140.02-0.2 137.14 0.5 133.54 0.5ZM175.74 0L157.59 0 157.59-0.8 162.89-2.85 162.89-30.25 155.74-30.25 151.74-22 150.94-22 150.94-33 182.39-33 182.39-22 181.59-22 177.59-30.25 170.44-30.25 170.44-2.85 175.74-0.8 175.74 0ZM201.94 0L186.39 0 186.39-0.8 190.64-2.85 190.64-30.15 186.39-32.2 186.39-33 203.49-33Q208.74-33 211.76-30.83 214.79-28.65 214.79-24.85L214.79-24.85Q214.79-22.1 212.94-20.13 211.09-18.15 208.09-17L208.09-17 217.34-2.8 220.94-0.8 220.94 0 210.09 0 200.84-15.3 198.19-15.3 198.19-2.9 201.94-0.8 201.94 0ZM200.19-30.25L200.19-30.25 198.19-30.25 198.19-17.75 200.49-17.75Q203.59-17.75 205.39-19.5 207.19-21.25 207.19-24.05L207.19-24.05Q207.19-27 205.41-28.63 203.64-30.25 200.19-30.25ZM247.84 0L231.34 0 231.34-0.8 235.84-2.85 235.84-15.4 224.94-30.25 221.54-32.2 221.54-33 236.99-33 236.99-32.2 233.24-30.35 233.24-30.15 241.94-18.4 249.74-30.05 249.74-30.25 245.89-32.2 245.89-33 257.29-33 257.29-32.2 253.94-30.55 243.39-15.45 243.39-2.85 247.84-0.8 247.84 0Z" opacity="1" transform="matrix(1,0,0,1,0,0)" fill="#ffffff" class="wordmark-text-0" data-fill-palette-color="primary"></path></svg></g></svg></g></svg></g><g transform="matrix(1,0,0,1,61.99786238532644,42.026584)"><svg viewBox="0 0 231.136238727328 27.63465312378383" height="27.63465312378383" width="231.136238727328"><g transform="matrix(1,0,0,1,0,0)"><svg width="231.136238727328" viewBox="1.75 -37.5 418.15 50" height="27.63465312378383" data-palette-color="#5ebc67"><path d="M2.2 9.5L2.2 12.5 12.6 12.5 12.6 9.5 8.7 9.5 8.7-1.55Q8.7-1.85 8.68-2.18 8.65-2.5 8.6-2.8L8.6-2.8Q8.85-2.25 9.33-1.78 9.8-1.3 10.75-0.8L10.75-0.8Q11.65-0.25 12.85 0.1 14.05 0.45 15.45 0.45L15.45 0.45Q17.55 0.45 19.38-0.33 21.2-1.1 22.55-2.45L22.55-2.45Q23.9-3.8 24.65-5.58 25.4-7.35 25.4-9.4L25.4-9.4Q25.4-11.4 24.65-13.18 23.9-14.95 22.55-16.3L22.55-16.3Q21.2-17.6 19.38-18.38 17.55-19.15 15.45-19.15L15.45-19.15Q12.65-19.15 10.83-17.9 9-16.65 8.3-15.35L8.3-15.35Q8.3-16.2 8.22-17.03 8.15-17.85 8.15-18.75L8.15-18.75 1.75-18.75 1.75-15.75 5.55-15.75 5.55 9.5 2.2 9.5ZM15.45-16.1L15.45-16.1Q16.8-16.1 18-15.63 19.2-15.15 20.1-14.4L20.1-14.4Q21.1-13.45 21.68-12.18 22.25-10.9 22.25-9.4L22.25-9.4Q22.25-7.9 21.68-6.6 21.1-5.3 20.15-4.4L20.15-4.4Q19.25-3.6 18.05-3.13 16.85-2.65 15.45-2.65L15.45-2.65Q14.05-2.65 12.85-3.13 11.65-3.6 10.75-4.45L10.75-4.45Q9.75-5.35 9.22-6.63 8.7-7.9 8.7-9.4L8.7-9.4Q8.7-10.75 9.18-11.98 9.65-13.2 10.55-14.1L10.55-14.1Q11.45-15.05 12.7-15.58 13.95-16.1 15.45-16.1ZM46 0L52.55 0 52.55-3 48.8-3 48.8-18.75 46.2-18.75Q46.15-17.9 46.07-17.05 46-16.2 46-15.4L46-15.4Q45.4-16.8 43.55-18 41.7-19.2 38.85-19.2L38.85-19.2Q36.75-19.2 34.92-18.4 33.1-17.6 31.8-16.25L31.8-16.25Q30.45-14.95 29.67-13.15 28.9-11.35 28.9-9.35L28.9-9.35Q28.9-7.35 29.67-5.58 30.45-3.8 31.8-2.5L31.8-2.5Q33.1-1.15 34.92-0.38 36.75 0.4 38.85 0.4L38.85 0.4Q40.35 0.4 41.57 0.05 42.8-0.3 43.75-0.9L43.75-0.9Q44.65-1.4 45.22-2 45.8-2.6 46-3.1L46-3.1Q46-2.65 46-2.3 46-1.95 46-1.5L46-1.5 46 0ZM38.85-16.1L38.85-16.1Q40.25-16.1 41.47-15.63 42.7-15.15 43.6-14.25L43.6-14.25Q44.55-13.4 45.1-12.13 45.65-10.85 45.65-9.4L45.65-9.4Q45.65-7.95 45.1-6.68 44.55-5.4 43.6-4.5L43.6-4.5Q42.7-3.65 41.47-3.15 40.25-2.65 38.85-2.65L38.85-2.65Q37.5-2.65 36.37-3.1 35.25-3.55 34.4-4.3L34.4-4.3Q33.3-5.2 32.7-6.53 32.1-7.85 32.1-9.4L32.1-9.4Q32.1-10.8 32.55-11.98 33-13.15 33.9-14.05L33.9-14.05Q34.75-15.05 36.05-15.58 37.35-16.1 38.85-16.1ZM56.5 9.5L56.5 12.5 66.9 12.5 66.9 9.5 63 9.5 63-1.55Q63-1.85 62.97-2.18 62.95-2.5 62.9-2.8L62.9-2.8Q63.15-2.25 63.62-1.78 64.09-1.3 65.05-0.8L65.05-0.8Q65.95-0.25 67.15 0.1 68.34 0.45 69.75 0.45L69.75 0.45Q71.84 0.45 73.67-0.33 75.5-1.1 76.84-2.45L76.84-2.45Q78.2-3.8 78.95-5.58 79.7-7.35 79.7-9.4L79.7-9.4Q79.7-11.4 78.95-13.18 78.2-14.95 76.84-16.3L76.84-16.3Q75.5-17.6 73.67-18.38 71.84-19.15 69.75-19.15L69.75-19.15Q66.95-19.15 65.12-17.9 63.3-16.65 62.59-15.35L62.59-15.35Q62.59-16.2 62.52-17.03 62.45-17.85 62.45-18.75L62.45-18.75 56.05-18.75 56.05-15.75 59.84-15.75 59.84 9.5 56.5 9.5ZM69.75-16.1L69.75-16.1Q71.09-16.1 72.3-15.63 73.5-15.15 74.4-14.4L74.4-14.4Q75.4-13.45 75.97-12.18 76.55-10.9 76.55-9.4L76.55-9.4Q76.55-7.9 75.97-6.6 75.4-5.3 74.45-4.4L74.45-4.4Q73.55-3.6 72.34-3.13 71.15-2.65 69.75-2.65L69.75-2.65Q68.34-2.65 67.15-3.13 65.95-3.6 65.05-4.45L65.05-4.45Q64.05-5.35 63.52-6.63 63-7.9 63-9.4L63-9.4Q63-10.75 63.47-11.98 63.95-13.2 64.84-14.1L64.84-14.1Q65.75-15.05 67-15.58 68.25-16.1 69.75-16.1ZM93.09-16.1L93.09-16.1Q94.59-16.1 95.79-15.33 96.99-14.55 97.79-13.25L97.79-13.25Q94.94-12.2 92.12-11.1 89.29-10 86.44-8.9L86.44-8.9Q86.29-10.3 86.69-11.55 87.09-12.8 87.84-13.75L87.84-13.75Q88.79-14.85 90.12-15.48 91.44-16.1 93.09-16.1ZM99.54-2.25L99.54-2.25 97.59-4.5Q96.74-3.6 95.59-3.13 94.44-2.65 93.09-2.65L93.09-2.65Q91.14-2.65 89.64-3.55 88.14-4.45 87.29-5.95L87.29-5.95Q90.94-7.35 94.54-8.72 98.14-10.1 101.79-11.5L101.79-11.5Q101.34-13.15 100.52-14.55 99.69-15.95 98.59-17L98.59-17Q97.44-18 96.04-18.6 94.64-19.2 93.09-19.2L93.09-19.2Q91.04-19.2 89.22-18.43 87.39-17.65 86.09-16.35L86.09-16.35Q84.74-15 83.97-13.2 83.19-11.4 83.19-9.4L83.19-9.4Q83.19-7.35 83.97-5.58 84.74-3.8 86.09-2.45L86.09-2.45Q87.39-1.15 89.22-0.38 91.04 0.4 93.09 0.4L93.09 0.4Q95.04 0.4 96.67-0.3 98.29-1 99.54-2.25ZM105.49 0L115.89 0 115.89-3 112.49-3 112.49-9.65Q112.49-11.2 113.17-12.48 113.84-13.75 114.99-14.6L114.99-14.6Q115.89-15.3 117.09-15.68 118.29-16.05 119.64-16.05L119.64-16.05 119.84-19.15Q118.89-19.15 117.87-18.8 116.84-18.45 115.79-17.75L115.79-17.75Q114.74-17.1 113.84-16.13 112.94-15.15 112.34-13.9L112.34-13.9Q112.24-14.95 112.27-15.03 112.29-15.1 112.19-16.15L112.19-16.15 112.04-18.75 105.89-18.75 105.89-15.75 109.34-15.75 109.34-3 105.49-3 105.49 0ZM123.34 0L133.74 0 133.74-3 130.24-3 130.24-37.5 123.69-37.5 123.69-34.5 127.09-34.5 127.09-3 123.34-3 123.34 0ZM147.14-16.1L147.14-16.1Q148.64-16.1 149.84-15.33 151.04-14.55 151.84-13.25L151.84-13.25Q148.99-12.2 146.16-11.1 143.34-10 140.49-8.9L140.49-8.9Q140.34-10.3 140.74-11.55 141.14-12.8 141.89-13.75L141.89-13.75Q142.84-14.85 144.16-15.48 145.49-16.1 147.14-16.1ZM153.59-2.25L153.59-2.25 151.64-4.5Q150.79-3.6 149.64-3.13 148.49-2.65 147.14-2.65L147.14-2.65Q145.19-2.65 143.69-3.55 142.19-4.45 141.34-5.95L141.34-5.95Q144.99-7.35 148.59-8.72 152.19-10.1 155.84-11.5L155.84-11.5Q155.39-13.15 154.56-14.55 153.74-15.95 152.64-17L152.64-17Q151.49-18 150.09-18.6 148.69-19.2 147.14-19.2L147.14-19.2Q145.09-19.2 143.26-18.43 141.44-17.65 140.14-16.35L140.14-16.35Q138.79-15 138.01-13.2 137.24-11.4 137.24-9.4L137.24-9.4Q137.24-7.35 138.01-5.58 138.79-3.8 140.14-2.45L140.14-2.45Q141.44-1.15 143.26-0.38 145.09 0.4 147.14 0.4L147.14 0.4Q149.09 0.4 150.71-0.3 152.34-1 153.59-2.25ZM171.28-1.7L171.28-1.7Q171.98-2.6 172.28-3.6 172.58-4.6 172.58-5.35L172.58-5.35Q172.58-6.95 171.98-7.95 171.38-8.95 170.43-9.6L170.43-9.6Q169.53-10.2 168.43-10.63 167.33-11.05 166.38-11.45L166.38-11.45Q165.43-11.8 164.76-12.3 164.08-12.8 164.03-13.65L164.03-13.65Q163.98-14.25 164.18-14.7 164.38-15.15 164.73-15.5L164.73-15.5Q165.13-15.75 165.66-15.9 166.18-16.05 166.73-16.05L166.73-16.05Q167.38-16.05 167.93-15.93 168.48-15.8 168.98-15.55L168.98-15.55 168.98-13.15 171.83-13.15 171.83-17.2Q171.33-17.75 170.66-18.1 169.98-18.45 169.28-18.7L169.28-18.7Q168.53-18.95 167.86-19.05 167.18-19.15 166.63-19.15L166.63-19.15Q165.73-19.15 164.68-18.82 163.63-18.5 162.78-17.85L162.78-17.85Q161.93-17.2 161.38-16.18 160.83-15.15 160.83-13.7L160.83-13.7Q160.83-12 161.48-11.03 162.13-10.05 163.08-9.5L163.08-9.5Q164.08-8.95 165.21-8.63 166.33-8.3 167.28-7.9L167.28-7.9Q168.23-7.55 168.81-6.98 169.38-6.4 169.38-5.3L169.38-5.3Q169.38-4.6 169.13-4.13 168.88-3.65 168.53-3.35L168.53-3.35Q168.03-3 167.48-2.85 166.93-2.7 166.38-2.7L166.38-2.7Q165.38-2.7 164.61-2.8 163.83-2.9 163.08-3.35L163.08-3.35 163.08-5.6 160.23-5.6 160.23-1.55Q161.33-0.45 162.96-0.03 164.58 0.4 166.28 0.4L166.28 0.4Q168.13 0.4 169.36-0.2 170.58-0.8 171.28-1.7ZM187.63-1.7L187.63-1.7Q188.33-2.6 188.63-3.6 188.93-4.6 188.93-5.35L188.93-5.35Q188.93-6.95 188.33-7.95 187.73-8.95 186.78-9.6L186.78-9.6Q185.88-10.2 184.78-10.63 183.68-11.05 182.73-11.45L182.73-11.45Q181.78-11.8 181.11-12.3 180.43-12.8 180.38-13.65L180.38-13.65Q180.33-14.25 180.53-14.7 180.73-15.15 181.08-15.5L181.08-15.5Q181.48-15.75 182.01-15.9 182.53-16.05 183.08-16.05L183.08-16.05Q183.73-16.05 184.28-15.93 184.83-15.8 185.33-15.55L185.33-15.55 185.33-13.15 188.18-13.15 188.18-17.2Q187.68-17.75 187.01-18.1 186.33-18.45 185.63-18.7L185.63-18.7Q184.88-18.95 184.21-19.05 183.53-19.15 182.98-19.15L182.98-19.15Q182.08-19.15 181.03-18.82 179.98-18.5 179.13-17.85L179.13-17.85Q178.28-17.2 177.73-16.18 177.18-15.15 177.18-13.7L177.18-13.7Q177.18-12 177.83-11.03 178.48-10.05 179.43-9.5L179.43-9.5Q180.43-8.95 181.56-8.63 182.68-8.3 183.63-7.9L183.63-7.9Q184.58-7.55 185.16-6.98 185.73-6.4 185.73-5.3L185.73-5.3Q185.73-4.6 185.48-4.13 185.23-3.65 184.88-3.35L184.88-3.35Q184.38-3 183.83-2.85 183.28-2.7 182.73-2.7L182.73-2.7Q181.73-2.7 180.96-2.8 180.18-2.9 179.43-3.35L179.43-3.35 179.43-5.6 176.58-5.6 176.58-1.55Q177.68-0.45 179.31-0.03 180.93 0.4 182.63 0.4L182.63 0.4Q184.48 0.4 185.71-0.2 186.93-0.8 187.63-1.7ZM225.18-4.85L225.18-4.85 225.08-2.6 225.13 0 231.48 0 231.48-2.7 228.18-2.7 228.18-18.75 221.53-18.75 221.53-15.75 225.03-15.75 225.03-9.1Q225.03-7.7 224.43-6.53 223.83-5.35 222.83-4.5L222.83-4.5Q221.88-3.65 220.6-3.18 219.33-2.7 217.93-2.7L217.93-2.7Q215.93-2.8 214.95-3.88 213.98-4.95 213.88-6.45L213.88-6.45 213.88-18.75 207.23-18.75 207.23-15.75 210.73-15.75 210.73-5.2Q210.83-2.7 212.48-1.15 214.13 0.4 216.98 0.4L216.98 0.4Q219.73 0.4 221.95-1.03 224.18-2.45 225.18-4.85ZM234.97 0L245.37 0 245.37-3 241.97-3 241.97-9.65Q241.97-11.05 242.55-12.23 243.12-13.4 244.12-14.25L244.12-14.25Q245.07-15.1 246.35-15.58 247.62-16.05 249.07-16.05L249.07-16.05Q251.07-15.95 252.05-14.88 253.02-13.8 253.12-12.3L253.12-12.3 253.12-3 249.22-3 249.22 0 259.62 0 259.62-3 256.27-3 256.27-13.55Q256.17-16.05 254.52-17.6 252.87-19.15 249.97-19.15L249.97-19.15Q247.27-19.15 245.05-17.73 242.82-16.3 241.82-13.9L241.82-13.9Q241.72-14.95 241.67-15.78 241.62-16.6 241.57-17.65L241.57-17.65 241.52-18.75 235.37-18.75 235.37-15.75 238.82-15.75 238.82-3 234.97-3 234.97 0ZM263.12 0L273.52 0 273.52-3 269.92-3 269.92-18.75 263.12-18.75 263.12-15.75 266.77-15.75 266.77-3 263.12-3 263.12 0ZM270.52-25.7L270.52-25.7Q270.52-26.65 269.87-27.28 269.22-27.9 268.42-27.9L268.42-27.9Q267.62-27.9 266.94-27.28 266.27-26.65 266.27-25.7L266.27-25.7Q266.27-24.8 266.94-24.18 267.62-23.55 268.42-23.55L268.42-23.55Q269.22-23.55 269.87-24.18 270.52-24.8 270.52-25.7ZM298.92-15.75L298.92-15.75 302.82-15.75 302.82-18.75 292.67-18.75 292.67-15.75 295.62-15.75Q294.07-12.85 292.57-10 291.07-7.15 289.97-4.4L289.97-4.4Q288.82-7.2 287.34-10.05 285.87-12.9 284.32-15.75L284.32-15.75 287.22-15.75 287.22-18.75 277.02-18.75 277.02-15.75 281.07-15.75Q283.32-11.5 285.52-7.3 287.72-3.1 289.97 1.15L289.97 1.15Q292.22-3.1 294.44-7.28 296.67-11.45 298.92-15.75ZM316.21-16.1L316.21-16.1Q317.71-16.1 318.92-15.33 320.12-14.55 320.92-13.25L320.92-13.25Q318.06-12.2 315.24-11.1 312.42-10 309.56-8.9L309.56-8.9Q309.42-10.3 309.81-11.55 310.21-12.8 310.96-13.75L310.96-13.75Q311.92-14.85 313.24-15.48 314.56-16.1 316.21-16.1ZM322.67-2.25L322.67-2.25 320.71-4.5Q319.87-3.6 318.71-3.13 317.56-2.65 316.21-2.65L316.21-2.65Q314.26-2.65 312.76-3.55 311.26-4.45 310.42-5.95L310.42-5.95Q314.06-7.35 317.67-8.72 321.26-10.1 324.92-11.5L324.92-11.5Q324.46-13.15 323.64-14.55 322.81-15.95 321.71-17L321.71-17Q320.56-18 319.17-18.6 317.76-19.2 316.21-19.2L316.21-19.2Q314.17-19.2 312.34-18.43 310.51-17.65 309.21-16.35L309.21-16.35Q307.87-15 307.09-13.2 306.31-11.4 306.31-9.4L306.31-9.4Q306.31-7.35 307.09-5.58 307.87-3.8 309.21-2.45L309.21-2.45Q310.51-1.15 312.34-0.38 314.17 0.4 316.21 0.4L316.21 0.4Q318.17 0.4 319.79-0.3 321.42-1 322.67-2.25ZM328.61 0L339.01 0 339.01-3 335.61-3 335.61-9.65Q335.61-11.2 336.29-12.48 336.96-13.75 338.11-14.6L338.11-14.6Q339.01-15.3 340.21-15.68 341.41-16.05 342.76-16.05L342.76-16.05 342.96-19.15Q342.01-19.15 340.99-18.8 339.96-18.45 338.91-17.75L338.91-17.75Q337.86-17.1 336.96-16.13 336.06-15.15 335.46-13.9L335.46-13.9Q335.36-14.95 335.39-15.03 335.41-15.1 335.31-16.15L335.31-16.15 335.16-18.75 329.01-18.75 329.01-15.75 332.46-15.75 332.46-3 328.61-3 328.61 0ZM358.21-1.7L358.21-1.7Q358.91-2.6 359.21-3.6 359.51-4.6 359.51-5.35L359.51-5.35Q359.51-6.95 358.91-7.95 358.31-8.95 357.36-9.6L357.36-9.6Q356.46-10.2 355.36-10.63 354.26-11.05 353.31-11.45L353.31-11.45Q352.36-11.8 351.69-12.3 351.01-12.8 350.96-13.65L350.96-13.65Q350.91-14.25 351.11-14.7 351.31-15.15 351.66-15.5L351.66-15.5Q352.06-15.75 352.59-15.9 353.11-16.05 353.66-16.05L353.66-16.05Q354.31-16.05 354.86-15.93 355.41-15.8 355.91-15.55L355.91-15.55 355.91-13.15 358.76-13.15 358.76-17.2Q358.26-17.75 357.59-18.1 356.91-18.45 356.21-18.7L356.21-18.7Q355.46-18.95 354.79-19.05 354.11-19.15 353.56-19.15L353.56-19.15Q352.66-19.15 351.61-18.82 350.56-18.5 349.71-17.85L349.71-17.85Q348.86-17.2 348.31-16.18 347.76-15.15 347.76-13.7L347.76-13.7Q347.76-12 348.41-11.03 349.06-10.05 350.01-9.5L350.01-9.5Q351.01-8.95 352.14-8.63 353.26-8.3 354.21-7.9L354.21-7.9Q355.16-7.55 355.74-6.98 356.31-6.4 356.31-5.3L356.31-5.3Q356.31-4.6 356.06-4.13 355.81-3.65 355.46-3.35L355.46-3.35Q354.96-3 354.41-2.85 353.86-2.7 353.31-2.7L353.31-2.7Q352.31-2.7 351.54-2.8 350.76-2.9 350.01-3.35L350.01-3.35 350.01-5.6 347.16-5.6 347.16-1.55Q348.26-0.45 349.89-0.03 351.51 0.4 353.21 0.4L353.21 0.4Q355.06 0.4 356.29-0.2 357.51-0.8 358.21-1.7ZM362.81 0L373.21 0 373.21-3 369.61-3 369.61-18.75 362.81-18.75 362.81-15.75 366.46-15.75 366.46-3 362.81-3 362.81 0ZM370.21-25.7L370.21-25.7Q370.21-26.65 369.56-27.28 368.91-27.9 368.11-27.9L368.11-27.9Q367.31-27.9 366.63-27.28 365.96-26.65 365.96-25.7L365.96-25.7Q365.96-24.8 366.63-24.18 367.31-23.55 368.11-23.55L368.11-23.55Q368.91-23.55 369.56-24.18 370.21-24.8 370.21-25.7ZM380.96 0L388.06 0 388.06-3 384.11-3 384.11-15.65 389.46-15.65 389.46-18.75 384.11-18.75 384.11-30.95 380.96-30.95 380.96-18.75 376.71-18.75 376.71-15.65 380.96-15.65 380.96 0ZM395.8 12.5L406.2 12.5 406.2 9.5 403.4 9.5Q406.55 3.15 409.7-3.13 412.85-9.4 416.05-15.75L416.05-15.75 419.9-15.75 419.9-18.75 409.75-18.75 409.75-15.75 412.75-15.75Q411.1-12.5 409.45-9.25 407.8-6 406.55-2.85L406.55-2.85Q405.2-6.1 403.55-9.3 401.9-12.5 400.25-15.75L400.25-15.75 403.15-15.75 403.15-18.75 392.95-18.75 392.95-15.75 397-15.75Q399-11.75 400.95-7.83 402.9-3.9 404.9 0.05L404.9 0.05Q403.7 2.4 402.53 4.75 401.35 7.1 400.15 9.5L400.15 9.5 395.8 9.5 395.8 12.5Z" opacity="1" transform="matrix(1,0,0,1,0,0)" fill="#ffffff" class="slogan-text-1" data-fill-palette-color="secondary" id="text-1"></path></svg></g></svg></g></svg></g></svg></g></svg></g><defs></defs></svg><rect width="293.13410111265443" height="69.66123712378383" fill="none" stroke="none" visibility="hidden"></rect></g></svg></g></svg>